<svg xmlns="http://www.w3.org/2000/svg" viewBox="0 0 1600 650" preserveAspectRatio="xMidYMid slice">
<defs>
  <radialGradient id="halo" cx="100%" cy="51%" r="56%">
    <stop offset="0%" stop-color="#f4e7cc" stop-opacity=".26"/>
    <stop offset="9%" stop-color="#d5ae6c" stop-opacity=".13"/>
    <stop offset="42%" stop-color="#19140e" stop-opacity=".08"/>
    <stop offset="100%" stop-color="#050608" stop-opacity="0"/>
  </radialGradient>
  <linearGradient id="goldLine" x1="0" y1="0" x2="1" y2="0">
    <stop offset="0%" stop-color="#c69a58" stop-opacity="0"/>
    <stop offset="42%" stop-color="#c69a58" stop-opacity=".35"/>
    <stop offset="84%" stop-color="#e6c98f" stop-opacity=".72"/>
    <stop offset="100%" stop-color="#fff7e7" stop-opacity=".96"/>
  </linearGradient>
  <linearGradient id="ivoryLine" x1="0" y1="0" x2="1" y2="0">
    <stop offset="0%" stop-color="#f4efe5" stop-opacity="0"/>
    <stop offset="52%" stop-color="#f4efe5" stop-opacity=".20"/>
    <stop offset="88%" stop-color="#fff9ec" stop-opacity=".74"/>
    <stop offset="100%" stop-color="#ffffff" stop-opacity=".98"/>
  </linearGradient>
  <linearGradient id="violetLine" x1="0" y1="0" x2="1" y2="0">
    <stop offset="0%" stop-color="#9b78df" stop-opacity="0"/>
    <stop offset="52%" stop-color="#9b78df" stop-opacity=".26"/>
    <stop offset="100%" stop-color="#d6c0ff" stop-opacity=".82"/>
  </linearGradient>
  <filter id="glow" x="-30%" y="-30%" width="160%" height="160%">
    <feGaussianBlur stdDeviation="4.5" result="b"/>
    <feMerge><feMergeNode in="b"/><feMergeNode in="SourceGraphic"/></feMerge>
  </filter>
  <style>.gold{stroke:url(#goldLine)}.ivory{stroke:url(#ivoryLine)}.violet{stroke:url(#violetLine)}.goldFill{fill:#d7ad69}.ivoryFill{fill:#f5efe4}.violetFill{fill:#a987ec}</style>
</defs>
<rect width="1600" height="650" fill="url(#halo)"/>
<g fill="none" stroke-linecap="round">
<path class="gold" opacity="0.61" stroke-width="0.85" d="M 447.9 15.0 C 708.1 45.8, 1149.8 290.3, 1585 334"/><path class="gold" opacity="0.69" stroke-width="0.70" d="M 541.5 20.4 C 743.6 43.2, 1113.6 279.4, 1585 334"/><path class="gold" opacity="0.62" stroke-width="1.25" d="M 447.3 25.9 C 728.7 58.1, 1143.0 288.0, 1585 334"/><path class="gold" opacity="0.49" stroke-width="0.85" d="M 479.0 31.3 C 780.1 54.1, 1142.6 290.0, 1585 334"/><path class="gold" opacity="0.19" stroke-width="0.70" d="M 511.8 36.8 C 802.9 52.2, 1125.5 292.0, 1585 334"/><path class="gold" opacity="0.53" stroke-width="1.05" d="M 475.7 42.2 C 797.4 54.2, 1148.1 292.5, 1585 334"/><path class="ivory" opacity="0.36" stroke-width="1.25" d="M 511.2 47.6 C 708.5 74.2, 1177.8 289.5, 1585 334"/><path class="gold" opacity="0.39" stroke-width="0.55" d="M 482.5 53.1 C 791.6 72.2, 1170.1 292.0, 1585 334"/><path class="gold" opacity="0.35" stroke-width="1.05" d="M 530.6 58.5 C 752.4 81.8, 1186.3 296.4, 1585 334"/><path class="ivory" opacity="0.48" stroke-width="0.55" d="M 446.2 63.9 C 789.6 85.2, 1215.6 288.4, 1585 334"/><path class="gold" opacity="0.58" stroke-width="0.55" d="M 530.1 69.4 C 776.5 84.1, 1230.8 288.4, 1585 334"/><path class="gold" opacity="0.44" stroke-width="0.55" d="M 524.0 74.8 C 780.4 89.8, 1211.5 287.2, 1585 334"/><path class="gold" opacity="0.68" stroke-width="0.55" d="M 506.0 80.2 C 778.9 109.9, 1195.6 298.0, 1585 334"/><path class="gold" opacity="0.31" stroke-width="1.05" d="M 439.6 85.7 C 753.4 99.0, 1216.2 298.2, 1585 334"/><path class="gold" opacity="0.70" stroke-width="0.85" d="M 458.2 91.1 C 781.5 107.0, 1196.4 303.3, 1585 334"/><path class="gold" opacity="0.28" stroke-width="0.55" d="M 417.1 96.5 C 712.5 104.4, 1187.5 295.7, 1585 334"/><path class="gold" opacity="0.50" stroke-width="1.25" d="M 499.1 102.0 C 757.1 129.4, 1163.7 304.2, 1585 334"/><path class="gold" opacity="0.59" stroke-width="0.55" d="M 479.6 107.4 C 707.3 123.6, 1166.7 301.3, 1585 334"/><path class="gold" opacity="0.28" stroke-width="0.55" d="M 464.3 112.8 C 792.7 134.0, 1153.9 300.7, 1585 334"/><path class="gold" opacity="0.55" stroke-width="0.85" d="M 529.9 118.3 C 723.8 131.8, 1200.0 302.2, 1585 334"/><path class="ivory" opacity="0.37" stroke-width="1.25" d="M 505.3 123.7 C 808.4 148.9, 1197.0 302.2, 1585 334"/><path class="gold" opacity="0.48" stroke-width="0.55" d="M 512.0 129.1 C 767.1 141.3, 1157.9 302.9, 1585 334"/><path class="gold" opacity="0.31" stroke-width="0.45" d="M 453.9 134.6 C 762.9 150.9, 1120.6 309.5, 1585 334"/><path class="ivory" opacity="0.68" stroke-width="0.85" d="M 466.7 140.0 C 732.3 164.3, 1131.1 306.0, 1585 334"/><path class="gold" opacity="0.30" stroke-width="1.25" d="M 481.8 145.4 C 728.6 168.8, 1137.1 308.8, 1585 334"/><path class="gold" opacity="0.43" stroke-width="1.05" d="M 512.0 150.9 C 716.2 167.9, 1178.9 311.9, 1585 334"/><path class="gold" opacity="0.60" stroke-width="0.55" d="M 540.7 156.3 C 730.8 182.3, 1179.4 315.5, 1585 334"/><path class="ivory" opacity="0.27" stroke-width="0.55" d="M 487.9 161.7 C 814.4 171.8, 1202.2 312.6, 1585 334"/><path class="gold" opacity="0.54" stroke-width="0.70" d="M 544.0 167.2 C 796.1 177.4, 1141.6 310.9, 1585 334"/><path class="gold" opacity="0.29" stroke-width="1.05" d="M 440.0 172.6 C 762.8 188.4, 1235.8 309.9, 1585 334"/><path class="ivory" opacity="0.42" stroke-width="1.25" d="M 512.8 178.0 C 779.4 200.3, 1195.3 311.0, 1585 334"/><path class="gold" opacity="0.56" stroke-width="0.85" d="M 407.6 183.5 C 740.8 210.8, 1166.8 315.4, 1585 334"/><path class="gold" opacity="0.65" stroke-width="0.55" d="M 491.5 188.9 C 734.6 204.2, 1149.6 321.1, 1585 334"/><path class="gold" opacity="0.52" stroke-width="0.85" d="M 492.6 194.3 C 809.4 216.8, 1114.3 316.5, 1585 334"/><path class="gold" opacity="0.42" stroke-width="1.25" d="M 421.0 199.8 C 780.2 210.3, 1234.7 322.3, 1585 334"/><path class="gold" opacity="0.40" stroke-width="0.85" d="M 536.0 205.2 C 788.4 228.8, 1210.4 315.8, 1585 334"/><path class="gold" opacity="0.47" stroke-width="0.85" d="M 533.9 210.6 C 721.5 233.4, 1239.1 319.1, 1585 334"/><path class="ivory" opacity="0.20" stroke-width="0.55" d="M 478.8 216.1 C 710.9 236.6, 1165.4 321.8, 1585 334"/><path class="gold" opacity="0.49" stroke-width="1.05" d="M 490.5 221.5 C 704.9 242.4, 1174.1 322.7, 1585 334"/><path class="gold" opacity="0.53" stroke-width="1.05" d="M 499.4 226.9 C 790.8 245.3, 1142.8 323.1, 1585 334"/><path class="gold" opacity="0.57" stroke-width="0.85" d="M 469.3 232.4 C 812.4 252.8, 1170.9 324.8, 1585 334"/><path class="gold" opacity="0.66" stroke-width="0.85" d="M 447.0 237.8 C 788.0 257.6, 1194.8 322.6, 1585 334"/><path class="gold" opacity="0.18" stroke-width="0.85" d="M 491.6 243.2 C 802.9 253.9, 1196.1 325.4, 1585 334"/><path class="gold" opacity="0.39" stroke-width="0.45" d="M 473.4 248.7 C 746.0 272.0, 1231.1 324.9, 1585 334"/><path class="gold" opacity="0.47" stroke-width="1.25" d="M 515.8 254.1 C 727.1 270.6, 1206.2 326.0, 1585 334"/><path class="gold" opacity="0.68" stroke-width="1.05" d="M 510.4 259.5 C 783.9 283.8, 1234.0 327.1, 1585 334"/><path class="gold" opacity="0.21" stroke-width="0.85" d="M 459.0 265.0 C 780.3 273.3, 1176.1 325.0, 1585 334"/><path class="gold" opacity="0.69" stroke-width="0.45" d="M 419.8 270.4 C 802.2 283.4, 1164.4 326.7, 1585 334"/><path class="gold" opacity="0.31" stroke-width="0.85" d="M 475.4 275.8 C 763.6 289.8, 1139.7 327.3, 1585 334"/><path class="gold" opacity="0.61" stroke-width="1.25" d="M 469.3 281.3 C 748.0 298.5, 1200.1 327.5, 1585 334"/><path class="gold" opacity="0.51" stroke-width="0.55" d="M 485.6 286.7 C 712.4 300.2, 1165.1 330.8, 1585 334"/><path class="gold" opacity="0.27" stroke-width="0.85" d="M 465.2 292.1 C 720.5 309.8, 1222.8 328.8, 1585 334"/><path class="gold" opacity="0.57" stroke-width="1.05" d="M 516.2 297.6 C 723.3 306.7, 1165.5 331.2, 1585 334"/><path class="gold" opacity="0.55" stroke-width="0.45" d="M 485.8 303.0 C 716.4 311.8, 1121.2 331.3, 1585 334"/><path class="gold" opacity="0.29" stroke-width="0.85" d="M 468.0 308.4 C 718.9 313.9, 1148.1 332.5, 1585 334"/><path class="gold" opacity="0.57" stroke-width="1.25" d="M 414.6 313.9 C 784.3 321.5, 1174.8 331.0, 1585 334"/><path class="gold" opacity="0.39" stroke-width="0.85" d="M 451.1 319.3 C 715.9 323.5, 1146.5 332.9, 1585 334"/><path class="gold" opacity="0.22" stroke-width="1.05" d="M 528.2 324.7 C 751.4 328.2, 1190.3 333.8, 1585 334"/><path class="gold" opacity="0.60" stroke-width="0.85" d="M 473.1 330.2 C 802.6 330.6, 1136.4 334.5, 1585 334"/><path class="gold" opacity="0.45" stroke-width="1.25" d="M 506.7 335.6 C 738.3 334.1, 1210.5 332.9, 1585 334"/><path class="gold" opacity="0.66" stroke-width="0.70" d="M 501.4 341.0 C 710.7 339.0, 1229.8 336.2, 1585 334"/><path class="gold" opacity="0.55" stroke-width="1.25" d="M 430.6 346.5 C 722.2 342.2, 1126.8 337.5, 1585 334"/><path class="gold" opacity="0.56" stroke-width="0.55" d="M 496.8 351.9 C 776.7 348.3, 1184.5 336.9, 1585 334"/><path class="gold" opacity="0.58" stroke-width="1.25" d="M 538.9 357.3 C 768.4 351.3, 1203.6 337.6, 1585 334"/><path class="gold" opacity="0.23" stroke-width="0.45" d="M 422.1 362.8 C 746.2 353.3, 1128.5 340.7, 1585 334"/><path class="gold" opacity="0.49" stroke-width="0.85" d="M 431.3 368.2 C 775.6 358.8, 1166.9 339.3, 1585 334"/><path class="gold" opacity="0.63" stroke-width="0.70" d="M 484.8 373.6 C 727.1 360.9, 1227.2 339.8, 1585 334"/><path class="gold" opacity="0.24" stroke-width="0.85" d="M 446.5 379.1 C 711.6 369.2, 1180.4 341.1, 1585 334"/><path class="gold" opacity="0.30" stroke-width="0.55" d="M 505.6 384.5 C 792.8 373.2, 1198.3 342.7, 1585 334"/><path class="gold" opacity="0.69" stroke-width="0.55" d="M 472.3 389.9 C 778.5 381.1, 1185.5 341.4, 1585 334"/><path class="gold" opacity="0.46" stroke-width="0.70" d="M 522.2 395.4 C 798.5 382.0, 1215.9 342.7, 1585 334"/><path class="gold" opacity="0.48" stroke-width="0.55" d="M 416.5 400.8 C 787.2 389.9, 1167.9 343.8, 1585 334"/><path class="gold" opacity="0.57" stroke-width="1.25" d="M 454.4 406.2 C 749.4 388.2, 1161.4 347.1, 1585 334"/><path class="gold" opacity="0.29" stroke-width="0.70" d="M 449.0 411.7 C 781.3 392.4, 1189.9 346.0, 1585 334"/><path class="gold" opacity="0.39" stroke-width="0.45" d="M 468.6 417.1 C 729.6 396.6, 1193.4 350.6, 1585 334"/><path class="ivory" opacity="0.68" stroke-width="0.85" d="M 526.6 422.5 C 768.3 405.8, 1224.8 349.8, 1585 334"/><path class="ivory" opacity="0.43" stroke-width="1.05" d="M 513.1 428.0 C 807.5 403.8, 1179.8 350.8, 1585 334"/><path class="gold" opacity="0.40" stroke-width="0.85" d="M 469.6 433.4 C 792.6 411.0, 1167.6 350.6, 1585 334"/><path class="gold" opacity="0.62" stroke-width="0.55" d="M 477.8 438.8 C 770.8 413.2, 1188.3 352.8, 1585 334"/><path class="gold" opacity="0.34" stroke-width="0.45" d="M 509.0 444.3 C 707.3 425.5, 1160.0 355.1, 1585 334"/><path class="gold" opacity="0.61" stroke-width="1.25" d="M 489.8 449.7 C 765.8 426.2, 1235.0 352.8, 1585 334"/><path class="gold" opacity="0.47" stroke-width="1.05" d="M 460.8 455.1 C 789.0 430.6, 1132.1 354.9, 1585 334"/><path class="gold" opacity="0.22" stroke-width="0.70" d="M 538.0 460.6 C 712.1 439.0, 1172.4 357.2, 1585 334"/><path class="gold" opacity="0.59" stroke-width="0.55" d="M 424.6 466.0 C 770.1 441.1, 1223.5 356.8, 1585 334"/><path class="gold" opacity="0.67" stroke-width="0.70" d="M 464.8 471.4 C 716.9 448.9, 1170.0 356.8, 1585 334"/><path class="gold" opacity="0.32" stroke-width="0.55" d="M 497.0 476.9 C 752.0 448.5, 1186.4 358.2, 1585 334"/><path class="ivory" opacity="0.49" stroke-width="1.25" d="M 431.9 482.3 C 759.5 451.3, 1206.5 360.9, 1585 334"/><path class="gold" opacity="0.26" stroke-width="0.55" d="M 482.7 487.7 C 728.5 466.2, 1209.8 361.4, 1585 334"/><path class="gold" opacity="0.59" stroke-width="0.70" d="M 494.1 493.2 C 731.6 466.2, 1234.8 362.5, 1585 334"/><path class="gold" opacity="0.33" stroke-width="1.05" d="M 513.0 498.6 C 794.0 469.8, 1226.0 362.7, 1585 334"/><path class="gold" opacity="0.69" stroke-width="0.70" d="M 501.3 504.0 C 749.5 476.6, 1124.8 364.2, 1585 334"/><path class="gold" opacity="0.22" stroke-width="0.55" d="M 406.6 509.5 C 769.7 476.4, 1185.9 367.3, 1585 334"/><path class="gold" opacity="0.51" stroke-width="1.25" d="M 507.8 514.9 C 725.4 486.8, 1161.7 369.7, 1585 334"/><path class="gold" opacity="0.36" stroke-width="0.70" d="M 478.8 520.3 C 708.6 489.4, 1192.2 368.9, 1585 334"/><path class="gold" opacity="0.60" stroke-width="0.85" d="M 486.9 525.8 C 746.0 493.5, 1169.8 371.1, 1585 334"/><path class="gold" opacity="0.65" stroke-width="0.45" d="M 468.6 531.2 C 750.1 503.7, 1181.2 369.9, 1585 334"/><path class="gold" opacity="0.45" stroke-width="0.70" d="M 481.5 536.6 C 810.5 500.5, 1142.8 373.4, 1585 334"/><path class="gold" opacity="0.49" stroke-width="0.70" d="M 426.2 542.1 C 742.5 503.4, 1134.0 375.5, 1585 334"/><path class="gold" opacity="0.18" stroke-width="1.25" d="M 441.4 547.5 C 798.5 513.0, 1163.1 375.8, 1585 334"/><path class="gold" opacity="0.62" stroke-width="0.70" d="M 523.6 552.9 C 801.2 515.9, 1162.7 378.2, 1585 334"/><path class="gold" opacity="0.66" stroke-width="0.70" d="M 530.4 558.4 C 742.6 525.5, 1209.0 377.4, 1585 334"/><path class="gold" opacity="0.20" stroke-width="0.55" d="M 502.4 563.8 C 751.5 524.0, 1185.9 381.5, 1585 334"/><path class="gold" opacity="0.34" stroke-width="0.70" d="M 487.8 569.2 C 747.9 528.7, 1154.4 381.5, 1585 334"/><path class="gold" opacity="0.28" stroke-width="1.25" d="M 503.1 574.7 C 725.6 539.0, 1219.3 381.2, 1585 334"/><path class="gold" opacity="0.49" stroke-width="0.85" d="M 442.0 580.1 C 708.4 543.6, 1127.5 382.2, 1585 334"/><path class="gold" opacity="0.39" stroke-width="0.55" d="M 523.7 585.5 C 793.9 542.6, 1192.0 385.3, 1585 334"/><path class="ivory" opacity="0.30" stroke-width="0.70" d="M 449.7 591.0 C 751.7 553.8, 1162.6 386.1, 1585 334"/><path class="gold" opacity="0.21" stroke-width="0.55" d="M 514.2 596.4 C 790.6 558.1, 1134.9 387.2, 1585 334"/><path class="gold" opacity="0.20" stroke-width="0.70" d="M 490.8 601.8 C 712.7 560.9, 1238.3 389.0, 1585 334"/><path class="gold" opacity="0.52" stroke-width="0.85" d="M 457.9 607.3 C 759.0 568.7, 1189.0 389.1, 1585 334"/><path class="ivory" opacity="0.55" stroke-width="0.70" d="M 504.5 612.7 C 749.2 567.7, 1222.8 391.8, 1585 334"/><path class="gold" opacity="0.43" stroke-width="0.70" d="M 415.1 618.1 C 808.1 578.2, 1126.9 392.3, 1585 334"/><path class="gold" opacity="0.48" stroke-width="0.70" d="M 438.3 623.6 C 767.7 583.1, 1208.8 392.5, 1585 334"/><path class="gold" opacity="0.52" stroke-width="0.70" d="M 489.0 629.0 C 732.8 586.6, 1169.0 395.6, 1585 334"/><path class="gold" opacity="0.67" stroke-width="0.55" d="M 469.6 634.4 C 779.5 590.5, 1150.4 397.5, 1585 334"/>
</g>
<g>
<circle class="goldFill" opacity="0.79" cx="1207.0" cy="269.4" r="1.5"/><circle class="ivoryFill" opacity="0.77" cx="1244.7" cy="292.3" r="1.2"/><circle class="goldFill" opacity="0.69" cx="1420.6" cy="325.5" r="1.6"/><circle class="goldFill" opacity="0.58" cx="1031.6" cy="249.6" r="0.7"/><circle class="goldFill" opacity="0.58" cx="969.6" cy="233.2" r="0.9"/><circle class="ivoryFill" opacity="0.72" cx="983.4" cy="238.3" r="1.0"/><circle class="goldFill" opacity="0.46" cx="837.1" cy="214.7" r="1.0"/><circle class="goldFill" opacity="0.71" cx="1107.6" cy="273.4" r="0.9"/><circle class="goldFill" opacity="0.76" cx="1362.5" cy="319.5" r="0.8"/><circle class="goldFill" opacity="0.41" cx="1143.5" cy="282.2" r="1.0"/><circle class="ivoryFill" opacity="0.74" cx="1221.1" cy="300.1" r="1.6"/><circle class="goldFill" opacity="0.56" cx="1343.5" cy="320.0" r="1.6"/><circle class="goldFill" opacity="0.58" cx="1320.2" cy="318.2" r="1.3"/><circle class="ivoryFill" opacity="0.40" cx="1264.4" cy="310.1" r="1.8"/><circle class="goldFill" opacity="0.58" cx="1329.4" cy="321.9" r="1.0"/><circle class="goldFill" opacity="0.71" cx="1249.8" cy="310.2" r="1.8"/><circle class="goldFill" opacity="0.53" cx="1345.4" cy="323.5" r="1.4"/><circle class="goldFill" opacity="0.52" cx="968.6" cy="255.6" r="1.8"/><circle class="ivoryFill" opacity="0.86" cx="1265.4" cy="316.3" r="1.2"/><circle class="goldFill" opacity="0.70" cx="1395.8" cy="327.7" r="1.8"/><circle class="goldFill" opacity="0.84" cx="1056.7" cy="281.0" r="1.4"/><circle class="goldFill" opacity="0.63" cx="1303.5" cy="320.5" r="1.1"/><circle class="goldFill" opacity="0.38" cx="1339.0" cy="324.7" r="1.4"/><circle class="goldFill" opacity="0.72" cx="1222.0" cy="312.5" r="1.5"/><circle class="goldFill" opacity="0.75" cx="1486.4" cy="332.8" r="1.1"/><circle class="goldFill" opacity="0.57" cx="1046.1" cy="287.2" r="1.5"/><circle class="goldFill" opacity="0.49" cx="1387.8" cy="329.1" r="1.6"/><circle class="ivoryFill" opacity="0.83" cx="1158.0" cy="308.0" r="1.4"/><circle class="goldFill" opacity="0.46" cx="1307.5" cy="324.1" r="1.5"/><circle class="ivoryFill" opacity="0.47" cx="1253.5" cy="320.5" r="1.2"/><circle class="goldFill" opacity="0.80" cx="1309.9" cy="327.4" r="1.3"/><circle class="goldFill" opacity="0.39" cx="1397.1" cy="331.1" r="1.1"/><circle class="goldFill" opacity="0.77" cx="1453.6" cy="333.0" r="1.6"/><circle class="goldFill" opacity="0.88" cx="1241.9" cy="324.7" r="1.6"/><circle class="goldFill" opacity="0.92" cx="1315.6" cy="329.4" r="1.7"/><circle class="goldFill" opacity="0.68" cx="1034.8" cy="316.8" r="1.8"/><circle class="goldFill" opacity="0.84" cx="1280.8" cy="327.8" r="1.7"/><circle class="goldFill" opacity="0.45" cx="1450.0" cy="333.6" r="1.0"/><circle class="ivoryFill" opacity="0.80" cx="1311.5" cy="331.2" r="1.5"/><circle class="goldFill" opacity="0.73" cx="1432.3" cy="333.1" r="0.9"/><circle class="goldFill" opacity="0.69" cx="1314.3" cy="333.1" r="1.7"/><circle class="goldFill" opacity="0.57" cx="1243.1" cy="333.2" r="0.8"/><circle class="goldFill" opacity="0.59" cx="1323.6" cy="333.5" r="1.0"/><circle class="goldFill" opacity="0.91" cx="1521.8" cy="334.0" r="1.3"/><circle class="goldFill" opacity="0.62" cx="1394.4" cy="334.4" r="1.4"/><circle class="ivoryFill" opacity="0.76" cx="1221.7" cy="336.8" r="1.6"/><circle class="goldFill" opacity="0.72" cx="1414.7" cy="335.4" r="1.8"/><circle class="goldFill" opacity="0.59" cx="1470.8" cy="334.5" r="0.9"/><circle class="goldFill" opacity="0.60" cx="1274.8" cy="341.9" r="1.4"/><circle class="goldFill" opacity="0.64" cx="1389.0" cy="338.6" r="1.3"/><circle class="goldFill" opacity="0.62" cx="1349.2" cy="341.1" r="1.1"/><circle class="goldFill" opacity="0.89" cx="1466.2" cy="336.9" r="1.4"/><circle class="goldFill" opacity="0.40" cx="1267.2" cy="348.1" r="1.8"/><circle class="goldFill" opacity="0.62" cx="1334.1" cy="344.7" r="1.3"/><circle class="goldFill" opacity="0.41" cx="1261.2" cy="353.8" r="1.1"/><circle class="ivoryFill" opacity="0.50" cx="1422.8" cy="340.6" r="1.0"/><circle class="goldFill" opacity="0.39" cx="1283.2" cy="355.0" r="1.6"/><circle class="goldFill" opacity="0.39" cx="1448.7" cy="341.1" r="1.7"/><circle class="goldFill" opacity="0.60" cx="1324.7" cy="356.0" r="1.7"/><circle class="goldFill" opacity="0.58" cx="1240.5" cy="367.6" r="1.5"/><circle class="goldFill" opacity="0.68" cx="1251.4" cy="369.6" r="1.7"/><circle class="goldFill" opacity="0.66" cx="1452.9" cy="345.8" r="1.4"/><circle class="goldFill" opacity="0.44" cx="1212.3" cy="379.4" r="1.0"/><circle class="goldFill" opacity="0.62" cx="1418.1" cy="354.4" r="1.3"/><circle class="goldFill" opacity="0.87" cx="1367.2" cy="362.9" r="1.8"/><circle class="goldFill" opacity="0.64" cx="1451.6" cy="349.7" r="1.0"/><circle class="goldFill" opacity="0.58" cx="1182.8" cy="398.4" r="1.2"/><circle class="goldFill" opacity="0.58" cx="1277.9" cy="384.3" r="1.7"/><circle class="goldFill" opacity="0.60" cx="1426.9" cy="359.9" r="1.3"/><circle class="goldFill" opacity="0.44" cx="1231.1" cy="395.7" r="1.1"/><circle class="goldFill" opacity="0.40" cx="1439.9" cy="361.1" r="1.1"/><circle class="goldFill" opacity="0.43" cx="1285.6" cy="393.1" r="1.5"/><circle class="goldFill" opacity="0.56" cx="1189.8" cy="418.3" r="1.1"/><circle class="goldFill" opacity="0.77" cx="1375.7" cy="380.5" r="1.4"/><circle class="goldFill" opacity="0.76" cx="1304.8" cy="399.9" r="1.6"/><circle class="ivoryFill" opacity="0.61" cx="1242.7" cy="417.2" r="1.0"/><circle class="goldFill" opacity="0.52" cx="1315.6" cy="405.2" r="1.2"/><circle class="goldFill" opacity="0.51" cx="1217.0" cy="432.7" r="1.2"/><circle class="goldFill" opacity="0.68" cx="1321.2" cy="410.4" r="1.7"/><circle class="goldFill" opacity="0.56" cx="1214.4" cy="441.4" r="1.2"/><circle class="goldFill" opacity="0.68" cx="1374.6" cy="399.7" r="1.4"/><circle class="goldFill" opacity="0.57" cx="1215.4" cy="450.9" r="1.5"/><circle class="goldFill" opacity="0.72" cx="1373.8" cy="406.5" r="1.0"/><circle class="goldFill" opacity="0.56" cx="1393.2" cy="404.0" r="1.7"/><circle class="goldFill" opacity="0.61" cx="1420.9" cy="399.1" r="1.6"/><circle class="goldFill" opacity="0.78" cx="1257.3" cy="447.1" r="1.4"/><circle class="goldFill" opacity="0.43" cx="1299.0" cy="437.3" r="1.0"/><circle class="goldFill" opacity="0.65" cx="1328.6" cy="432.4" r="1.5"/><circle class="goldFill" opacity="0.75" cx="1301.4" cy="443.4" r="1.4"/><circle class="goldFill" opacity="0.83" cx="1419.7" cy="407.3" r="1.2"/><circle class="goldFill" opacity="0.55" cx="1196.0" cy="484.2" r="1.5"/><circle class="goldFill" opacity="0.68" cx="1375.2" cy="428.6" r="1.6"/><circle class="goldFill" opacity="0.56" cx="1281.4" cy="462.8" r="1.7"/><circle class="goldFill" opacity="0.55" cx="1268.0" cy="474.0" r="1.6"/><circle class="goldFill" opacity="0.75" cx="1416.0" cy="422.4" r="1.0"/><circle class="goldFill" opacity="0.62" cx="1404.4" cy="429.6" r="1.6"/><circle class="goldFill" opacity="0.46" cx="1234.3" cy="503.0" r="0.8"/><circle class="goldFill" opacity="0.38" cx="1196.2" cy="518.6" r="1.4"/><circle class="goldFill" opacity="0.79" cx="1384.2" cy="447.7" r="1.4"/><circle class="goldFill" opacity="0.50" cx="1319.1" cy="474.0" r="1.5"/><circle class="goldFill" opacity="0.57" cx="1245.7" cy="506.6" r="1.6"/><circle class="goldFill" opacity="0.69" cx="1331.3" cy="476.7" r="1.8"/><circle class="goldFill" opacity="0.58" cx="1394.4" cy="452.0" r="1.0"/><circle class="goldFill" opacity="0.44" cx="1396.9" cy="454.9" r="1.6"/><circle class="goldFill" opacity="0.48" cx="1270.1" cy="514.8" r="1.1"/><circle class="goldFill" opacity="0.87" cx="1403.1" cy="458.2" r="1.7"/><circle class="goldFill" opacity="0.69" cx="1294.9" cy="510.4" r="1.1"/><circle class="goldFill" opacity="0.42" cx="1287.6" cy="518.8" r="1.0"/><circle class="goldFill" opacity="0.71" cx="1375.4" cy="482.9" r="1.7"/><circle class="goldFill" opacity="0.61" cx="1418.7" cy="462.7" r="1.0"/><circle class="goldFill" opacity="0.67" cx="1215.2" cy="562.5" r="1.3"/><circle class="goldFill" opacity="0.61" cx="1345.6" cy="508.6" r="1.6"/><circle class="goldFill" opacity="0.54" cx="1417.6" cy="472.9" r="1.5"/><circle class="goldFill" opacity="0.86" cx="1422.0" cy="474.7" r="1.6"/><circle class="goldFill" opacity="0.43" cx="1219.4" cy="575.2" r="1.4"/><circle class="goldFill" opacity="0.59" cx="1308.8" cy="538.3" r="1.8"/><circle class="goldFill" opacity="0.72" cx="1266.5" cy="558.1" r="1.3"/><circle class="goldFill" opacity="0.76" cx="1251.0" cy="567.8" r="1.5"/><circle class="goldFill" opacity="0.63" cx="1340.8" cy="530.0" r="1.2"/><circle class="goldFill" opacity="0.63" cx="1398.3" cy="499.7" r="1.5"/><circle class="goldFill" opacity="0.64" cx="1367.0" cy="515.7" r="1.7"/><circle class="goldFill" opacity="0.56" cx="1252.0" cy="583.2" r="1.0"/><circle class="goldFill" opacity="0.72" cx="1394.0" cy="507.7" r="1.8"/><circle class="goldFill" opacity="0.46" cx="1191.8" cy="614.0" r="1.7"/><circle class="goldFill" opacity="0.84" cx="1410.7" cy="503.2" r="1.5"/><circle class="goldFill" opacity="0.49" cx="1306.4" cy="559.7" r="1.3"/><circle class="ivoryFill" opacity="0.47" cx="1392.0" cy="518.1" r="1.5"/><circle class="goldFill" opacity="0.51" cx="1202.8" cy="628.8" r="1.6"/><circle class="goldFill" opacity="0.56" cx="1416.1" cy="518.0" r="1.5"/>
</g>
<g filter="url(#glow)"><circle cx="1585" cy="334" r="3.8" fill="#fffdf7"/><ellipse cx="1576" cy="334" rx="55" ry="7" fill="#fff7df" opacity=".18"/></g>
</svg>